<svg width="300" height="300" viewBox="0 0 495 504" fill="none" xmlns="http://www.w3.org/2000/svg">
<path fill-rule="evenodd" clip-rule="evenodd" d="M247.905 40.8232C247.905 62.993 247.279 81.5257 246.515 82.0089C245.75 82.4877 236.899 80.6339 226.842 77.8929C161.919 60.1729 76.0838 65.6638 17.3304 91.2906L1.78608 98.0729L1.32409 144.178C1.07365 169.533 1.31549 190.279 1.85954 190.279C2.40791 190.279 6.33284 187.578 10.5859 184.275C63.6008 143.093 166.997 134.541 237.926 165.474C248.466 170.069 247.905 172.23 247.905 127.025C247.905 105.119 248.302 86.7969 248.786 86.3005C249.269 85.8085 256.459 87.6887 264.762 90.478C317.591 108.229 383.227 117.159 420.257 111.637C433.474 109.665 434.109 110.438 427.282 120.216C410.3 144.539 382.506 163.475 351.534 171.817C328.9 177.918 268.32 176.79 250.785 169.941C248.16 168.918 247.905 171.786 247.905 202.61V236.402L243.155 235.37C240.543 234.799 232.576 232.976 225.452 231.316C151.685 214.11 47.7628 254.368 5.40016 316.555L0.892273 323.175L1.33707 413.343L1.78608 503.516L12.149 494.841C76.2349 441.197 145.416 434.099 233.734 472.113C248.414 478.43 247.905 479.594 247.905 439.678C247.905 420.407 248.341 404.642 248.876 404.642C249.408 404.642 256.597 406.587 264.853 408.968C328.226 427.246 405.559 418.474 473.92 385.252C496.796 374.139 494.831 379.287 494.861 330.405C494.887 286.738 494.253 283.474 487.029 290.204C486.126 291.043 477.616 294.917 468.116 298.813C391.763 330.116 318.498 335.295 251.791 314.1L247.905 312.866V356.893C247.905 381.106 247.257 401.33 246.463 401.826C245.668 402.327 237.702 399.52 228.759 395.588C172.131 370.686 120.506 361.079 93.4891 370.414C82.3576 374.257 82.1374 373.221 91.464 360.895C127.458 313.305 185.274 292.506 235.69 309.013C248.708 313.274 247.905 315.536 247.905 274.619C247.905 254.324 248.505 237.72 249.239 237.72C249.973 237.72 258.328 239.807 267.806 242.354C315.67 255.225 379.553 247.261 419.191 223.484C423.863 220.685 428.077 218.392 428.56 218.392C433.448 218.392 473.557 182.79 486.523 166.937L494.887 156.711V90.1398C494.887 53.5225 494.274 23.1779 493.523 22.7079C492.771 22.2335 488.691 24.0212 484.455 26.6744C438.474 55.4903 389.233 53.7816 304.106 20.4149C273.35 8.3658 251.752 0.516113 249.33 0.516113C248.544 0.516113 247.905 18.6534 247.905 40.8232Z" fill="#0c0d0e"/>
</svg>
