<svg id="visual" viewBox="0 0 900 200" width="900" height="200" xmlns="http://www.w3.org/2000/svg" xmlns:xlink="http://www.w3.org/1999/xlink" version="1.1"><rect x="0" y="0" width="900" height="200" fill="#0c0d0e"></rect><path d="M0 89L37.5 97.7C75 106.3 150 123.7 225 124.3C300 125 375 109 450 94.5C525 80 600 67 675 75.7C750 84.3 825 114.7 862.5 129.8L900 145L900 201L862.5 201C825 201 750 201 675 201C600 201 525 201 450 201C375 201 300 201 225 201C150 201 75 201 37.5 201L0 201Z" fill="#ffffff" stroke-linecap="round" stroke-linejoin="miter"></path></svg>